<svg width="104" height="38" viewBox="0 0 104 38" fill="none" xmlns="http://www.w3.org/2000/svg">
<path d="M7.872 3.168V30.192H20.832L20.016 36.432H0V3.168H7.872Z" fill="#141414"/>
<path d="M34.2866 10.128C38.1906 10.128 41.2466 11.328 43.4546 13.728C45.6626 16.096 46.7666 19.424 46.7666 23.712C46.7666 26.432 46.2546 28.816 45.2306 30.864C44.2386 32.88 42.7986 34.448 40.9106 35.568C39.0546 36.688 36.8466 37.248 34.2866 37.248C30.4146 37.248 27.3586 36.064 25.1186 33.696C22.9106 31.296 21.8066 27.952 21.8066 23.664C21.8066 20.944 22.3026 18.576 23.2946 16.56C24.3186 14.512 25.7586 12.928 27.6146 11.808C29.5026 10.688 31.7266 10.128 34.2866 10.128ZM34.2866 15.696C32.7506 15.696 31.5986 16.352 30.8306 17.664C30.0626 18.944 29.6786 20.944 29.6786 23.664C29.6786 26.448 30.0466 28.48 30.7826 29.76C31.5506 31.04 32.7186 31.68 34.2866 31.68C35.8226 31.68 36.9746 31.04 37.7426 29.76C38.5106 28.448 38.8946 26.432 38.8946 23.712C38.8946 20.928 38.5106 18.896 37.7426 17.616C37.0066 16.336 35.8546 15.696 34.2866 15.696Z" fill="#141414"/>
<path d="M65.7259 10.128C68.7659 10.128 71.1019 11.328 72.7339 13.728C74.3659 16.096 75.1819 19.424 75.1819 23.712C75.1819 26.336 74.7659 28.672 73.9339 30.72C73.1339 32.768 71.9659 34.368 70.4299 35.52C68.9259 36.672 67.1339 37.248 65.0539 37.248C63.6779 37.248 62.4139 36.96 61.2619 36.384C60.1419 35.808 59.1819 35.008 58.3819 33.984L57.9979 36.432H51.2779V0.816001L58.8619 0V13.536C59.6299 12.48 60.6059 11.648 61.7899 11.04C63.0059 10.432 64.3179 10.128 65.7259 10.128ZM62.8459 31.728C65.8219 31.728 67.3099 29.056 67.3099 23.712C67.3099 20.672 66.9579 18.576 66.2539 17.424C65.5499 16.272 64.5259 15.696 63.1819 15.696C61.4859 15.696 60.0459 16.688 58.8619 18.672V29.28C59.3419 30.048 59.9179 30.656 60.5899 31.104C61.2939 31.52 62.0459 31.728 62.8459 31.728Z" fill="#141414"/>
<path d="M90.9585 10.128C94.8625 10.128 97.9185 11.328 100.127 13.728C102.335 16.096 103.438 19.424 103.438 23.712C103.438 26.432 102.927 28.816 101.903 30.864C100.911 32.88 99.4705 34.448 97.5825 35.568C95.7265 36.688 93.5185 37.248 90.9585 37.248C87.0865 37.248 84.0305 36.064 81.7905 33.696C79.5825 31.296 78.4785 27.952 78.4785 23.664C78.4785 20.944 78.9745 18.576 79.9665 16.56C80.9905 14.512 82.4305 12.928 84.2865 11.808C86.1745 10.688 88.3985 10.128 90.9585 10.128ZM90.9585 15.696C89.4225 15.696 88.2705 16.352 87.5025 17.664C86.7345 18.944 86.3505 20.944 86.3505 23.664C86.3505 26.448 86.7185 28.48 87.4545 29.76C88.2225 31.04 89.3905 31.68 90.9585 31.68C92.4945 31.68 93.6465 31.04 94.4145 29.76C95.1825 28.448 95.5665 26.432 95.5665 23.712C95.5665 20.928 95.1825 18.896 94.4145 17.616C93.6785 16.336 92.5265 15.696 90.9585 15.696Z" fill="#141414"/>
</svg>
